<svg viewBox="0 0 26 32" fill="none" xmlns="http://www.w3.org/2000/svg" width="20" height="20">
    <path 
        d="M25.7392 0.688594C25.568 0.395431 25.2653 0.203079 24.9281 0.16861C13.8647 -0.931091 7.51208 3.54331 3.99503 7.92761C3.85696 8.03241 3.74676 8.17037 3.6764 8.32955C2.02878 10.452 0.792745 12.8638 0.0305362 15.4399C0.0106214 15.5195 0.0013279 15.6031 0 15.6853C0 15.822 0.0504519 18.995 3.43344 24.0172H3.43477C2.82404 26.2578 2.40185 28.546 2.17219 30.857C2.12705 31.4407 2.56383 31.9514 3.14934 31.9965H3.23298C3.78793 31.9978 4.25128 31.572 4.29509 31.0188C4.52743 28.8698 4.93236 26.7447 5.50723 24.662L14.4783 21.5698L14.477 21.5685C14.6469 21.5115 14.7996 21.4107 14.9191 21.278C19.2909 16.4507 25.5348 2.24759 25.7979 1.64549H25.7992C25.932 1.33508 25.9105 0.98044 25.7392 0.688594ZM19.4447 9.99546C18.1875 10.1997 16.9169 10.3098 15.6435 10.3271H15.4178C14.831 10.3231 14.3531 10.7954 14.3491 11.3804C14.3451 11.9667 14.8164 12.4456 15.4033 12.4495H15.6396C16.5052 12.4416 17.3708 12.3898 18.2311 12.293C16.8995 14.893 15.3209 17.359 13.5181 19.6581L6.25319 22.1626C8.17163 16.3179 11.9009 8.98334 19.0516 4.75067C19.5561 4.45087 19.7221 3.80086 19.4234 3.2968C19.1233 2.79271 18.4714 2.62557 17.9669 2.92536C10.2558 7.49525 6.28365 15.1653 4.24438 21.319C3.165 19.641 2.44674 17.7574 2.13609 15.7874C2.59146 14.2009 3.26061 12.6833 4.12227 11.2759C4.2537 11.7548 4.40904 12.2708 4.59092 12.7988C4.73829 13.2286 5.1419 13.5165 5.59594 13.5165C5.71277 13.5165 5.8296 13.4966 5.93979 13.4581C6.49474 13.2671 6.78949 12.6648 6.59963 12.1103C6.25313 11.0836 5.96899 10.0369 5.74994 8.97703C8.769 5.30774 14.0902 1.65475 23.2336 2.16651C22.4702 3.84457 21.0656 6.85559 19.4447 9.99546ZM17.2687 30.9388C17.2687 31.2213 17.1572 31.4906 16.9567 31.6896C16.7576 31.8886 16.4881 32 16.2066 32H6.99663C6.4098 32 5.93452 31.5251 5.93452 30.9388C5.93452 30.3538 6.4098 29.8775 6.99663 29.8775H16.2104C16.7959 29.8802 17.2687 30.3551 17.2687 30.9388ZM22.0311 30.9388C22.0311 31.2213 21.9196 31.4906 21.7204 31.6896C21.5213 31.8886 21.2504 32 20.969 32H19.8259C19.239 32 18.7638 31.5251 18.7638 30.9388C18.7638 30.3538 19.239 29.8775 19.8259 29.8775H20.969C21.2504 29.8775 21.5213 29.9903 21.7204 30.1893C21.9196 30.3883 22.0311 30.6576 22.0311 30.9388Z" 
        fill="#101828"
    />
</svg>